<svg width="885" height="415" viewBox="0 0 885 415" fill="none" xmlns="http://www.w3.org/2000/svg">
<path d="M155.52 307.6H112L14.08 210.64L110.08 120.08H153.28V123.92L60.48 210.32L155.52 304.08V307.6ZM363.598 97.68L323.598 98H315.918C307.171 98.4267 302.798 98.8533 302.798 99.28V178.32H355.918C358.478 178.32 359.758 168.08 359.758 147.6L377.678 144.72L376.718 188.88C376.718 201.04 377.038 214.16 377.678 228.24L359.118 231.76C359.118 219.6 358.904 211.813 358.478 208.4C358.051 204.987 356.984 203.28 355.278 203.28H302.798V269.2C302.798 276.24 304.718 280.827 308.558 282.96C312.398 285.093 318.904 286.16 328.078 286.16H358.158C386.958 286.16 406.584 270.8 417.038 240.08L434.318 243.6C434.318 247.227 431.224 258.533 425.038 277.52C418.851 296.507 414.264 306 411.278 306L337.358 306.32C337.358 306.32 317.838 306.213 278.798 306C267.491 306 253.624 306.32 237.198 306.96L233.358 289.68C243.598 289.467 250.318 288.4 253.518 286.48C256.931 284.56 258.638 281.787 258.638 278.16V106.64C258.638 102.8 257.144 99.92 254.158 98C251.384 96.08 245.731 95.12 237.198 95.12L233.038 77.84C258.638 78.48 273.571 78.8 277.838 78.8H360.718L410.638 79.12C413.198 84.88 414.478 94.16 414.478 106.96C414.478 119.76 413.944 131.173 412.878 141.2L398.798 138.96C396.451 124.24 392.504 113.68 386.958 107.28C381.624 100.88 373.838 97.68 363.598 97.68ZM550.858 328.72H516.298L611.978 70.16H645.578L550.858 328.72ZM728.855 304.08L823.895 210.32L731.095 123.92V120.08H774.295L870.295 210.64L772.375 307.6H728.855V304.08Z" fill="url(#paint0_linear_6_3)"/>
<defs>
<linearGradient id="paint0_linear_6_3" x1="442.5" y1="0" x2="442.5" y2="415" gradientUnits="userSpaceOnUse">
<stop stop-color="#AD57FF"/>
<stop offset="1" stop-color="#91BDFF"/>
</linearGradient>
</defs>
</svg>
